<svg width="16" height="20" viewBox="0 0 16 20" fill="none" xmlns="http://www.w3.org/2000/svg">
<path d="M1.5 20C1.1 20 0.75 19.85 0.45 19.55C0.15 19.25 0 18.9 0 18.5V1.5C0 1.1 0.15 0.75 0.45 0.45C0.75 0.15 1.1 0 1.5 0H9.9C10.1 0 10.2917 0.0375 10.475 0.1125C10.6583 0.1875 10.825 0.3 10.975 0.45L15.55 5.025C15.7 5.175 15.8125 5.34167 15.8875 5.525C15.9625 5.70833 16 5.9 16 6.1V18.5C16 18.9 15.85 19.25 15.55 19.55C15.25 19.85 14.9 20 14.5 20H1.5ZM1.5 18.5H14.5V6.15H10.525C10.3083 6.15 10.1292 6.07917 9.9875 5.9375C9.84583 5.79583 9.775 5.61667 9.775 5.4V1.5H1.5V18.5ZM1.5 18.5V6.15V1.5V18.5Z" fill="#222222"/>
</svg>
