<svg width="16" height="21" viewBox="0 0 16 21" fill="none" xmlns="http://www.w3.org/2000/svg">
<path d="M6.9 14.325L12.6 8.62501L11.55 7.60001L6.975 12.175L4.45 9.65001L3.35 10.75L6.9 14.325ZM8 20.975C5.66667 20.3917 3.75 19.0375 2.25 16.9125C0.75 14.7875 0 12.4583 0 9.92501V3.97501L8 0.975006L16 3.97501V9.92501C16 12.4583 15.25 14.7875 13.75 16.9125C12.25 19.0375 10.3333 20.3917 8 20.975ZM8 19.425C9.91667 18.7917 11.4792 17.5958 12.6875 15.8375C13.8958 14.0792 14.5 12.1083 14.5 9.92501V5.02501L8 2.57501L1.5 5.02501V9.92501C1.5 12.1083 2.10417 14.0792 3.3125 15.8375C4.52083 17.5958 6.08333 18.7917 8 19.425Z" fill="#242424"/>
</svg>
